<svg width="32" height="28" viewBox="0 0 32 28" fill="none" xmlns="http://www.w3.org/2000/svg">
<path d="M7.85683 1.80078L7.85733 1.80176L11.5208 8.15312L4.19434 8.15423L4.33203 7.91566L6.82189 3.59642L7.85683 1.80078Z" fill="#D33544"/>
<path d="M4.19413 8.15541L11.521 8.1543V8.15528L7.9977 14.2682L7.99673 14.2696H7.99575L7.99623 14.2706L7.85903 14.5087L4.47194 20.385L4.33522 20.6226L4.19794 20.385L1.03018 14.893C0.808093 14.5079 0.807964 14.0335 1.02985 13.6484L4.19413 8.15541Z" fill="#F6494B"/>
<path d="M7.95295 26.7365L9.67587 26.7363L7.0498 27.9712L7.86083 26.8961L7.95295 26.7365Z" fill="#4A2282"/>
<path d="M11.524 20.3789L13.7163 24.1887H13.7168L15.0523 26.5042L15.1862 26.7368L7.95288 26.7379L11.524 20.3789Z" fill="#254EDB"/>
<path d="M13.4461 0.00195313C13.7125 0.00191277 13.9589 0.14426 14.0921 0.375366L14.9117 1.79672L17.9961 7.14391L18.5781 8.15298H18.5766L18.5752 8.15053L11.5228 8.1516L11.5213 8.15405H11.5203L7.85687 1.8027V1.80024L7.85833 1.79778L7.85687 1.7973L7.85246 1.79485L7.24977 0.749802C7.05833 0.417865 7.29752 0.00288419 7.6803 0.00282623L13.4461 0.00195313Z" fill="#721FE5"/>
<path d="M7.22145 0.749963C7.02786 0.418033 7.2669 0.000934801 7.65077 0.000876733L13.4407 8.606e-09C13.7068 -4.03524e-05 13.9527 0.141888 14.0861 0.372452L16.1034 3.85872L9.03532 3.85979L7.22145 0.749963Z" fill="#5D2E9F"/>
<path d="M25.7669 7.91406L25.9042 8.15161L28.5253 12.6964L29.4299 14.2644L29.4289 14.266L22.1055 14.2671L24.2963 10.4661L25.6302 8.15165L25.7669 7.91406Z" fill="#D98732"/>
<path d="M14.9119 1.79592L21.5201 1.79492C21.9642 1.79486 22.3746 2.03206 22.5968 2.41719L25.7669 7.91353L25.6301 8.15112L24.2963 10.4656L22.1053 14.2665H22.1043L18.6214 8.22728L18.5782 8.15219L17.9963 7.14312L15.0487 2.03297L14.9119 1.79592Z" fill="#FDAB45"/>
<path d="M18.5735 20.382L18.5775 20.3883L18.5809 20.382L25.9044 20.3809L25.7676 20.6174V20.618L22.6006 26.1128C22.3786 26.498 21.9683 26.7354 21.5241 26.7354L15.1865 26.7363L15.0527 26.5037L13.7171 24.1881H13.7167L11.5691 20.464L11.5242 20.3831L18.5735 20.382Z" fill="#3366FF"/>
<path d="M7.99653 14.2715L11.5227 20.3848L7.95331 26.7392L7.86119 26.8988L7.3879 27.7198C7.19914 28.0473 6.72909 28.053 6.5326 27.7301L3.53082 22.7974C3.38886 22.5642 3.3854 22.2719 3.52179 22.0353L4.3355 20.6239V20.6234L4.47222 20.3858L7.85931 14.5095L7.99653 14.2715Z" fill="#721FE5"/>
<path d="M9.32441 24.3636L7.38799 27.7199C7.19915 28.0473 6.72925 28.0528 6.5328 27.7299L3.53034 22.7962C3.38862 22.5633 3.38491 22.2716 3.52064 22.0352L5.74319 18.1641L9.32441 24.3636Z" fill="#5D2E9F"/>
<path d="M7.1408 0.524843C7.14207 0.512668 7.15829 0.509441 7.16411 0.520204L7.85256 1.79356L7.85648 1.79994V1.80043L6.82153 3.59607L7.1408 0.524843Z" fill="#4A2282"/>
<path d="M29.4614 14.3262L29.4987 14.3247L29.536 14.3262L30.8665 14.3721C30.8914 14.373 30.902 14.3406 30.8812 14.3266L28.5537 12.7578L29.4614 14.3262Z" fill="#4A2282"/>
<path d="M29.421 14.281L29.4294 14.2657L29.0602 14.2658L22.1059 14.2669L22.1053 14.2678L18.5811 20.3822L27.4007 20.3809C27.7561 20.3809 28.0843 20.191 28.2619 19.8828L31.0688 15.0125C31.2601 14.6805 31.0208 14.2655 30.638 14.2656L29.4445 14.2657L29.421 14.281Z" fill="#721FE5"/>
<path d="M26.6691 14.2662L23.1443 20.3816L27.5445 20.3809C27.8109 20.3809 28.0572 20.2385 28.1904 20.0073L31.069 15.0125C31.2603 14.6805 31.021 14.2655 30.6382 14.2656L26.6691 14.2662Z" fill="#5D2E9F"/>
</svg>
